<mxfile host="app.diagrams.net" modified="2024-07-29T10:00:08.792Z" agent="Mozilla/5.0 (Macintosh; Intel Mac OS X 10_15_7) AppleWebKit/537.36 (KHTML, like Gecko) Chrome/126.0.0.0 Safari/537.36" etag="Ee8Akb75xKHacSBIDVXk" version="24.6.5" type="device">
  <diagram name="Page-1" id="DpoQtL1Sfmoe_D3Uby3G">
    <mxGraphModel dx="1112" dy="2870" grid="0" gridSize="10" guides="1" tooltips="1" connect="1" arrows="1" fold="1" page="0" pageScale="1" pageWidth="827" pageHeight="1169" math="0" shadow="0">
      <root>
        <mxCell id="0" />
        <mxCell id="1" parent="0" />
        <mxCell id="QsIfA3HyMXUQCg9hHSW7-2" value="" style="rounded=0;whiteSpace=wrap;html=1;rotation=-90;" vertex="1" parent="1">
          <mxGeometry x="-523" y="-1510.06" width="927.88" height="246" as="geometry" />
        </mxCell>
        <mxCell id="QsIfA3HyMXUQCg9hHSW7-3" value="" style="rounded=0;whiteSpace=wrap;html=1;" vertex="1" parent="1">
          <mxGeometry x="-182.06" y="-1851" width="246" height="60" as="geometry" />
        </mxCell>
        <mxCell id="QsIfA3HyMXUQCg9hHSW7-4" value="Crep&lt;div&gt;Collector&lt;/div&gt;" style="text;html=1;align=center;verticalAlign=middle;whiteSpace=wrap;rounded=0;fontSize=16;" vertex="1" parent="1">
          <mxGeometry x="-101.56" y="-1839" width="85" height="36" as="geometry" />
        </mxCell>
        <mxCell id="QsIfA3HyMXUQCg9hHSW7-5" value="" style="rounded=1;whiteSpace=wrap;html=1;" vertex="1" parent="1">
          <mxGeometry x="-130.06" y="-1762" width="143" height="181" as="geometry" />
        </mxCell>
        <mxCell id="QsIfA3HyMXUQCg9hHSW7-9" value="" style="endArrow=none;html=1;rounded=0;fontSize=12;startSize=8;endSize=8;curved=1;" edge="1" parent="1" target="QsIfA3HyMXUQCg9hHSW7-5">
          <mxGeometry width="50" height="50" relative="1" as="geometry">
            <mxPoint x="-130.06" y="-1644" as="sourcePoint" />
            <mxPoint x="-80.06" y="-1694" as="targetPoint" />
            <Array as="points">
              <mxPoint x="15.939999999999998" y="-1644" />
            </Array>
          </mxGeometry>
        </mxCell>
        <mxCell id="QsIfA3HyMXUQCg9hHSW7-10" value="Image" style="text;html=1;align=center;verticalAlign=middle;whiteSpace=wrap;rounded=0;fontSize=16;" vertex="1" parent="1">
          <mxGeometry x="-98.06" y="-1737" width="78" height="62.5" as="geometry" />
        </mxCell>
        <mxCell id="QsIfA3HyMXUQCg9hHSW7-11" value="Brand:" style="text;html=1;align=center;verticalAlign=middle;whiteSpace=wrap;rounded=0;fontSize=16;" vertex="1" parent="1">
          <mxGeometry x="-126.06" y="-1637" width="60" height="15" as="geometry" />
        </mxCell>
        <mxCell id="QsIfA3HyMXUQCg9hHSW7-12" value="Type:" style="text;html=1;align=center;verticalAlign=middle;whiteSpace=wrap;rounded=0;fontSize=16;" vertex="1" parent="1">
          <mxGeometry x="-126.06" y="-1619" width="60" height="15" as="geometry" />
        </mxCell>
        <mxCell id="QsIfA3HyMXUQCg9hHSW7-13" value="Cost:" style="text;html=1;align=center;verticalAlign=middle;whiteSpace=wrap;rounded=0;fontSize=16;" vertex="1" parent="1">
          <mxGeometry x="-126.06" y="-1602" width="60" height="15" as="geometry" />
        </mxCell>
        <mxCell id="QsIfA3HyMXUQCg9hHSW7-16" value="" style="rounded=1;whiteSpace=wrap;html=1;" vertex="1" parent="1">
          <mxGeometry x="-130.06" y="-1557" width="143" height="181" as="geometry" />
        </mxCell>
        <mxCell id="QsIfA3HyMXUQCg9hHSW7-17" value="Image" style="text;html=1;align=center;verticalAlign=middle;whiteSpace=wrap;rounded=0;fontSize=16;" vertex="1" parent="1">
          <mxGeometry x="-98.06" y="-1532" width="78" height="62.5" as="geometry" />
        </mxCell>
        <mxCell id="QsIfA3HyMXUQCg9hHSW7-18" value="Brand:" style="text;html=1;align=center;verticalAlign=middle;whiteSpace=wrap;rounded=0;fontSize=16;" vertex="1" parent="1">
          <mxGeometry x="-126.06" y="-1432" width="60" height="15" as="geometry" />
        </mxCell>
        <mxCell id="QsIfA3HyMXUQCg9hHSW7-19" value="Type:" style="text;html=1;align=center;verticalAlign=middle;whiteSpace=wrap;rounded=0;fontSize=16;" vertex="1" parent="1">
          <mxGeometry x="-126.06" y="-1414" width="60" height="15" as="geometry" />
        </mxCell>
        <mxCell id="QsIfA3HyMXUQCg9hHSW7-20" value="Cost:" style="text;html=1;align=center;verticalAlign=middle;whiteSpace=wrap;rounded=0;fontSize=16;" vertex="1" parent="1">
          <mxGeometry x="-126.06" y="-1397" width="60" height="15" as="geometry" />
        </mxCell>
        <mxCell id="QsIfA3HyMXUQCg9hHSW7-21" value="" style="endArrow=none;html=1;rounded=0;fontSize=12;startSize=8;endSize=8;curved=1;" edge="1" parent="1">
          <mxGeometry width="50" height="50" relative="1" as="geometry">
            <mxPoint x="-130.06" y="-1438" as="sourcePoint" />
            <mxPoint x="12.939999999999998" y="-1439" as="targetPoint" />
            <Array as="points">
              <mxPoint x="15.939999999999998" y="-1438" />
            </Array>
          </mxGeometry>
        </mxCell>
        <mxCell id="QsIfA3HyMXUQCg9hHSW7-31" value="" style="rounded=1;whiteSpace=wrap;html=1;" vertex="1" parent="1">
          <mxGeometry x="-132.06" y="-1351" width="143" height="181" as="geometry" />
        </mxCell>
        <mxCell id="QsIfA3HyMXUQCg9hHSW7-32" value="Image" style="text;html=1;align=center;verticalAlign=middle;whiteSpace=wrap;rounded=0;fontSize=16;" vertex="1" parent="1">
          <mxGeometry x="-100.06" y="-1326" width="78" height="62.5" as="geometry" />
        </mxCell>
        <mxCell id="QsIfA3HyMXUQCg9hHSW7-33" value="Brand:" style="text;html=1;align=center;verticalAlign=middle;whiteSpace=wrap;rounded=0;fontSize=16;" vertex="1" parent="1">
          <mxGeometry x="-128.06" y="-1226" width="60" height="15" as="geometry" />
        </mxCell>
        <mxCell id="QsIfA3HyMXUQCg9hHSW7-34" value="Type:" style="text;html=1;align=center;verticalAlign=middle;whiteSpace=wrap;rounded=0;fontSize=16;" vertex="1" parent="1">
          <mxGeometry x="-128.06" y="-1208" width="60" height="15" as="geometry" />
        </mxCell>
        <mxCell id="QsIfA3HyMXUQCg9hHSW7-35" value="" style="endArrow=none;html=1;rounded=0;fontSize=12;startSize=8;endSize=8;curved=1;" edge="1" parent="1">
          <mxGeometry width="50" height="50" relative="1" as="geometry">
            <mxPoint x="-132.06" y="-1232" as="sourcePoint" />
            <mxPoint x="10.939999999999998" y="-1233" as="targetPoint" />
            <Array as="points">
              <mxPoint x="13.939999999999998" y="-1232" />
            </Array>
          </mxGeometry>
        </mxCell>
        <mxCell id="QsIfA3HyMXUQCg9hHSW7-36" value="" style="rounded=1;whiteSpace=wrap;html=1;" vertex="1" parent="1">
          <mxGeometry x="-130.56" y="-1146" width="143" height="181" as="geometry" />
        </mxCell>
        <mxCell id="QsIfA3HyMXUQCg9hHSW7-41" value="Add&amp;nbsp;&lt;div&gt;Shoe +&lt;/div&gt;" style="text;html=1;align=center;verticalAlign=middle;whiteSpace=wrap;rounded=0;fontSize=16;" vertex="1" parent="1">
          <mxGeometry x="-95.56" y="-1100" width="73" height="78" as="geometry" />
        </mxCell>
        <mxCell id="QsIfA3HyMXUQCg9hHSW7-42" value="" style="rounded=0;whiteSpace=wrap;html=1;" vertex="1" parent="1">
          <mxGeometry x="-182.06" y="-896" width="681" height="588" as="geometry" />
        </mxCell>
        <mxCell id="QsIfA3HyMXUQCg9hHSW7-43" value="" style="rounded=0;whiteSpace=wrap;html=1;" vertex="1" parent="1">
          <mxGeometry x="-182" y="-896" width="681" height="60" as="geometry" />
        </mxCell>
        <mxCell id="QsIfA3HyMXUQCg9hHSW7-44" value="Crep Collector&amp;nbsp;" style="text;html=1;align=center;verticalAlign=middle;whiteSpace=wrap;rounded=0;fontSize=16;" vertex="1" parent="1">
          <mxGeometry x="55.94" y="-879" width="205" height="30" as="geometry" />
        </mxCell>
        <mxCell id="QsIfA3HyMXUQCg9hHSW7-45" value="Cost:" style="text;html=1;align=center;verticalAlign=middle;whiteSpace=wrap;rounded=0;fontSize=16;" vertex="1" parent="1">
          <mxGeometry x="-130.06" y="-1193" width="60" height="15" as="geometry" />
        </mxCell>
        <mxCell id="QsIfA3HyMXUQCg9hHSW7-47" value="" style="rounded=1;whiteSpace=wrap;html=1;" vertex="1" parent="1">
          <mxGeometry x="-140" y="-817" width="143" height="181" as="geometry" />
        </mxCell>
        <mxCell id="QsIfA3HyMXUQCg9hHSW7-48" value="" style="endArrow=none;html=1;rounded=0;fontSize=12;startSize=8;endSize=8;curved=1;" edge="1" parent="1" target="QsIfA3HyMXUQCg9hHSW7-47">
          <mxGeometry width="50" height="50" relative="1" as="geometry">
            <mxPoint x="-140" y="-699" as="sourcePoint" />
            <mxPoint x="-90" y="-749" as="targetPoint" />
            <Array as="points">
              <mxPoint x="6" y="-699" />
            </Array>
          </mxGeometry>
        </mxCell>
        <mxCell id="QsIfA3HyMXUQCg9hHSW7-49" value="Image" style="text;html=1;align=center;verticalAlign=middle;whiteSpace=wrap;rounded=0;fontSize=16;" vertex="1" parent="1">
          <mxGeometry x="-108" y="-792" width="78" height="62.5" as="geometry" />
        </mxCell>
        <mxCell id="QsIfA3HyMXUQCg9hHSW7-50" value="Brand:" style="text;html=1;align=center;verticalAlign=middle;whiteSpace=wrap;rounded=0;fontSize=16;" vertex="1" parent="1">
          <mxGeometry x="-136" y="-692" width="60" height="15" as="geometry" />
        </mxCell>
        <mxCell id="QsIfA3HyMXUQCg9hHSW7-51" value="Cost:" style="text;html=1;align=center;verticalAlign=middle;whiteSpace=wrap;rounded=0;fontSize=16;" vertex="1" parent="1">
          <mxGeometry x="-136" y="-657" width="60" height="15" as="geometry" />
        </mxCell>
        <mxCell id="QsIfA3HyMXUQCg9hHSW7-52" value="Type:" style="text;html=1;align=center;verticalAlign=middle;whiteSpace=wrap;rounded=0;fontSize=16;" vertex="1" parent="1">
          <mxGeometry x="-136" y="-675" width="60" height="15" as="geometry" />
        </mxCell>
        <mxCell id="QsIfA3HyMXUQCg9hHSW7-68" value="" style="rounded=1;whiteSpace=wrap;html=1;" vertex="1" parent="1">
          <mxGeometry x="307" y="-817" width="143" height="181" as="geometry" />
        </mxCell>
        <mxCell id="QsIfA3HyMXUQCg9hHSW7-69" value="" style="endArrow=none;html=1;rounded=0;fontSize=12;startSize=8;endSize=8;curved=1;" edge="1" parent="1" target="QsIfA3HyMXUQCg9hHSW7-68">
          <mxGeometry width="50" height="50" relative="1" as="geometry">
            <mxPoint x="307" y="-699" as="sourcePoint" />
            <mxPoint x="357" y="-749" as="targetPoint" />
            <Array as="points">
              <mxPoint x="453" y="-699" />
            </Array>
          </mxGeometry>
        </mxCell>
        <mxCell id="QsIfA3HyMXUQCg9hHSW7-70" value="Image" style="text;html=1;align=center;verticalAlign=middle;whiteSpace=wrap;rounded=0;fontSize=16;" vertex="1" parent="1">
          <mxGeometry x="339" y="-792" width="78" height="62.5" as="geometry" />
        </mxCell>
        <mxCell id="QsIfA3HyMXUQCg9hHSW7-71" value="Brand:" style="text;html=1;align=center;verticalAlign=middle;whiteSpace=wrap;rounded=0;fontSize=16;" vertex="1" parent="1">
          <mxGeometry x="311" y="-692" width="60" height="15" as="geometry" />
        </mxCell>
        <mxCell id="QsIfA3HyMXUQCg9hHSW7-72" value="Cost:" style="text;html=1;align=center;verticalAlign=middle;whiteSpace=wrap;rounded=0;fontSize=16;" vertex="1" parent="1">
          <mxGeometry x="311" y="-657" width="60" height="15" as="geometry" />
        </mxCell>
        <mxCell id="QsIfA3HyMXUQCg9hHSW7-73" value="Type:" style="text;html=1;align=center;verticalAlign=middle;whiteSpace=wrap;rounded=0;fontSize=16;" vertex="1" parent="1">
          <mxGeometry x="311" y="-675" width="60" height="15" as="geometry" />
        </mxCell>
        <mxCell id="QsIfA3HyMXUQCg9hHSW7-74" value="" style="rounded=1;whiteSpace=wrap;html=1;" vertex="1" parent="1">
          <mxGeometry x="86.5" y="-813" width="143" height="181" as="geometry" />
        </mxCell>
        <mxCell id="QsIfA3HyMXUQCg9hHSW7-75" value="" style="endArrow=none;html=1;rounded=0;fontSize=12;startSize=8;endSize=8;curved=1;" edge="1" parent="1" target="QsIfA3HyMXUQCg9hHSW7-74">
          <mxGeometry width="50" height="50" relative="1" as="geometry">
            <mxPoint x="86.5" y="-695" as="sourcePoint" />
            <mxPoint x="136.5" y="-745" as="targetPoint" />
            <Array as="points">
              <mxPoint x="232.5" y="-695" />
            </Array>
          </mxGeometry>
        </mxCell>
        <mxCell id="QsIfA3HyMXUQCg9hHSW7-76" value="Image" style="text;html=1;align=center;verticalAlign=middle;whiteSpace=wrap;rounded=0;fontSize=16;" vertex="1" parent="1">
          <mxGeometry x="118.5" y="-788" width="78" height="62.5" as="geometry" />
        </mxCell>
        <mxCell id="QsIfA3HyMXUQCg9hHSW7-77" value="Brand:" style="text;html=1;align=center;verticalAlign=middle;whiteSpace=wrap;rounded=0;fontSize=16;" vertex="1" parent="1">
          <mxGeometry x="90.5" y="-688" width="60" height="15" as="geometry" />
        </mxCell>
        <mxCell id="QsIfA3HyMXUQCg9hHSW7-78" value="Cost:" style="text;html=1;align=center;verticalAlign=middle;whiteSpace=wrap;rounded=0;fontSize=16;" vertex="1" parent="1">
          <mxGeometry x="90.5" y="-653" width="60" height="15" as="geometry" />
        </mxCell>
        <mxCell id="QsIfA3HyMXUQCg9hHSW7-79" value="Type:" style="text;html=1;align=center;verticalAlign=middle;whiteSpace=wrap;rounded=0;fontSize=16;" vertex="1" parent="1">
          <mxGeometry x="90.5" y="-671" width="60" height="15" as="geometry" />
        </mxCell>
        <mxCell id="QsIfA3HyMXUQCg9hHSW7-80" value="" style="rounded=1;whiteSpace=wrap;html=1;" vertex="1" parent="1">
          <mxGeometry x="-141.5" y="-582" width="143" height="181" as="geometry" />
        </mxCell>
        <mxCell id="QsIfA3HyMXUQCg9hHSW7-81" value="" style="endArrow=none;html=1;rounded=0;fontSize=12;startSize=8;endSize=8;curved=1;" edge="1" parent="1" target="QsIfA3HyMXUQCg9hHSW7-80">
          <mxGeometry width="50" height="50" relative="1" as="geometry">
            <mxPoint x="-141.5" y="-464" as="sourcePoint" />
            <mxPoint x="-91.5" y="-514" as="targetPoint" />
            <Array as="points">
              <mxPoint x="4.5" y="-464" />
            </Array>
          </mxGeometry>
        </mxCell>
        <mxCell id="QsIfA3HyMXUQCg9hHSW7-82" value="Image" style="text;html=1;align=center;verticalAlign=middle;whiteSpace=wrap;rounded=0;fontSize=16;" vertex="1" parent="1">
          <mxGeometry x="-109.5" y="-557" width="78" height="62.5" as="geometry" />
        </mxCell>
        <mxCell id="QsIfA3HyMXUQCg9hHSW7-83" value="Brand:" style="text;html=1;align=center;verticalAlign=middle;whiteSpace=wrap;rounded=0;fontSize=16;" vertex="1" parent="1">
          <mxGeometry x="-137.5" y="-457" width="60" height="15" as="geometry" />
        </mxCell>
        <mxCell id="QsIfA3HyMXUQCg9hHSW7-84" value="Cost:" style="text;html=1;align=center;verticalAlign=middle;whiteSpace=wrap;rounded=0;fontSize=16;" vertex="1" parent="1">
          <mxGeometry x="-137.5" y="-422" width="60" height="15" as="geometry" />
        </mxCell>
        <mxCell id="QsIfA3HyMXUQCg9hHSW7-85" value="Type:" style="text;html=1;align=center;verticalAlign=middle;whiteSpace=wrap;rounded=0;fontSize=16;" vertex="1" parent="1">
          <mxGeometry x="-137.5" y="-440" width="60" height="15" as="geometry" />
        </mxCell>
        <mxCell id="QsIfA3HyMXUQCg9hHSW7-86" value="" style="rounded=1;whiteSpace=wrap;html=1;" vertex="1" parent="1">
          <mxGeometry x="86.5" y="-582" width="143" height="181" as="geometry" />
        </mxCell>
        <mxCell id="QsIfA3HyMXUQCg9hHSW7-87" value="" style="endArrow=none;html=1;rounded=0;fontSize=12;startSize=8;endSize=8;curved=1;" edge="1" parent="1" target="QsIfA3HyMXUQCg9hHSW7-86">
          <mxGeometry width="50" height="50" relative="1" as="geometry">
            <mxPoint x="86.5" y="-464" as="sourcePoint" />
            <mxPoint x="136.5" y="-514" as="targetPoint" />
            <Array as="points">
              <mxPoint x="232.5" y="-464" />
            </Array>
          </mxGeometry>
        </mxCell>
        <mxCell id="QsIfA3HyMXUQCg9hHSW7-88" value="Image" style="text;html=1;align=center;verticalAlign=middle;whiteSpace=wrap;rounded=0;fontSize=16;" vertex="1" parent="1">
          <mxGeometry x="118.5" y="-557" width="78" height="62.5" as="geometry" />
        </mxCell>
        <mxCell id="QsIfA3HyMXUQCg9hHSW7-89" value="Brand:" style="text;html=1;align=center;verticalAlign=middle;whiteSpace=wrap;rounded=0;fontSize=16;" vertex="1" parent="1">
          <mxGeometry x="90.5" y="-457" width="60" height="15" as="geometry" />
        </mxCell>
        <mxCell id="QsIfA3HyMXUQCg9hHSW7-90" value="Cost:" style="text;html=1;align=center;verticalAlign=middle;whiteSpace=wrap;rounded=0;fontSize=16;" vertex="1" parent="1">
          <mxGeometry x="90.5" y="-422" width="60" height="15" as="geometry" />
        </mxCell>
        <mxCell id="QsIfA3HyMXUQCg9hHSW7-91" value="Type:" style="text;html=1;align=center;verticalAlign=middle;whiteSpace=wrap;rounded=0;fontSize=16;" vertex="1" parent="1">
          <mxGeometry x="90.5" y="-440" width="60" height="15" as="geometry" />
        </mxCell>
        <mxCell id="QsIfA3HyMXUQCg9hHSW7-92" value="" style="rounded=1;whiteSpace=wrap;html=1;" vertex="1" parent="1">
          <mxGeometry x="305.5" y="-582" width="143" height="181" as="geometry" />
        </mxCell>
        <mxCell id="QsIfA3HyMXUQCg9hHSW7-98" value="Add&amp;nbsp;&lt;div&gt;Shoe +&lt;/div&gt;" style="text;html=1;align=center;verticalAlign=middle;whiteSpace=wrap;rounded=0;fontSize=16;" vertex="1" parent="1">
          <mxGeometry x="342" y="-541" width="73" height="78" as="geometry" />
        </mxCell>
        <mxCell id="QsIfA3HyMXUQCg9hHSW7-99" value="FOOTER&amp;nbsp;" style="rounded=0;whiteSpace=wrap;html=1;" vertex="1" parent="1">
          <mxGeometry x="-182.06" y="-952" width="246.06" height="29" as="geometry" />
        </mxCell>
        <mxCell id="QsIfA3HyMXUQCg9hHSW7-100" value="FOOTER" style="rounded=0;whiteSpace=wrap;html=1;" vertex="1" parent="1">
          <mxGeometry x="-182" y="-368" width="680" height="60" as="geometry" />
        </mxCell>
        <mxCell id="QsIfA3HyMXUQCg9hHSW7-102" value="Search" style="text;html=1;align=center;verticalAlign=middle;whiteSpace=wrap;rounded=0;fontSize=16;" vertex="1" parent="1">
          <mxGeometry x="378" y="-881" width="84" height="30" as="geometry" />
        </mxCell>
        <mxCell id="QsIfA3HyMXUQCg9hHSW7-103" value="Socials" style="text;html=1;align=center;verticalAlign=middle;whiteSpace=wrap;rounded=0;fontSize=16;" vertex="1" parent="1">
          <mxGeometry x="-130.06" y="-881" width="91.06" height="30" as="geometry" />
        </mxCell>
      </root>
    </mxGraphModel>
  </diagram>
</mxfile>
